<svg xmlns="http://www.w3.org/2000/svg" width="240" height="360" viewBox="0 0 240 360"><rect width="100%" height="100%" fill="#DDDDDD"/><path fill="#999999" d="M56.81 187.885h5.94q.64 0 1.02.36.37.36.37.95v2.37H48.27v-1.31q0-.4.17-.84t.53-.79l7.03-7.04q.88-.9 1.57-1.72.7-.81 1.16-1.61.47-.8.72-1.63.24-.82.24-1.73 0-.83-.24-1.47-.24-.63-.68-1.06t-1.05-.65q-.62-.21-1.39-.21-.7 0-1.3.2t-1.06.56q-.47.36-.79.84t-.48 1.05q-.27.74-.7.98t-1.25.11l-2.08-.37q.24-1.66.93-2.92.69-1.25 1.72-2.09t2.37-1.27q1.33-.42 2.87-.42 1.6 0 2.93.47 1.32.47 2.27 1.34.94.86 1.47 2.08.53 1.21.53 2.7 0 1.28-.38 2.37-.37 1.09-1.01 2.08-.63.99-1.48 1.92-.84.93-1.77 1.89l-5.22 5.32q.75-.22 1.5-.34.74-.12 1.41-.12m13.16-5.04h7.04v-7.57q0-1.07.14-2.37zm10.48 0h2.91v2.29q0 .32-.21.55t-.59.23h-2.11v5.65h-3.44v-5.65h-9.76q-.4 0-.71-.25-.3-.24-.38-.61l-.42-2 10.96-14.64h3.75zm21.48-2.85q0 3.03-.64 5.26-.65 2.23-1.8 3.69-1.14 1.45-2.7 2.16-1.56.72-3.37.72t-3.35-.72q-1.54-.71-2.68-2.16-1.14-1.46-1.78-3.69t-.64-5.26q0-3.04.64-5.26.64-2.23 1.78-3.68 1.14-1.46 2.68-2.17t3.35-.71 3.37.71 2.7 2.17q1.15 1.45 1.8 3.68.64 2.22.64 5.26m-4.08 0q0-2.51-.36-4.16-.37-1.65-.99-2.62-.61-.98-1.41-1.37t-1.67-.39q-.85 0-1.64.39t-1.4 1.37q-.61.97-.97 2.62t-.36 4.16.36 4.16.97 2.63q.61.97 1.4 1.36.79.4 1.64.4.87 0 1.67-.4.8-.39 1.41-1.36.62-.98.99-2.63.36-1.65.36-4.16m29.49 6.27-2.09 2.07-5.43-5.43-5.47 5.46-2.1-2.06 5.48-5.49-5.22-5.22 2.08-2.08 5.22 5.22 5.18-5.19 2.11 2.08-5.2 5.2zm13.31-11.02-2.08-.37q.24-1.66.93-2.92.69-1.25 1.72-2.09t2.37-1.27q1.34-.42 2.87-.42 1.6 0 2.89.45 1.29.46 2.2 1.27t1.4 1.89q.49 1.09.49 2.36 0 1.1-.25 1.94t-.71 1.46q-.47.63-1.15 1.06-.69.43-1.56.72 2.08.66 3.11 2 1.02 1.34 1.02 3.38 0 1.72-.64 3.05t-1.73 2.23q-1.08.91-2.52 1.37-1.43.47-3.03.47-1.74 0-3.04-.4-1.29-.4-2.25-1.19-.96-.78-1.64-1.92-.67-1.13-1.15-2.62l1.75-.72q.68-.29 1.28-.15.6.13.88.64.28.56.63 1.11.34.54.82.97.48.42 1.13.68.65.27 1.54.27 1.01 0 1.76-.33.76-.33 1.26-.86.5-.52.75-1.17t.25-1.31q0-.83-.18-1.51-.17-.68-.73-1.16t-1.61-.75-2.81-.27v-2.82q1.46-.01 2.42-.27t1.53-.71q.56-.46.79-1.1.22-.64.22-1.41 0-1.63-.91-2.48-.91-.84-2.43-.84-.71 0-1.3.2t-1.06.56-.79.84-.48 1.05q-.28.74-.72.98t-1.24.11m29.97-6.82-6.86 8.4-.8 1q.67-.34 1.45-.52.77-.19 1.67-.19 1.31 0 2.55.43 1.24.44 2.18 1.31.95.87 1.52 2.17.58 1.29.58 3.02 0 1.62-.59 3.03-.59 1.42-1.67 2.47-1.07 1.06-2.58 1.67t-3.34.61q-1.85 0-3.32-.6-1.48-.59-2.52-1.65-1.04-1.07-1.59-2.56-.55-1.5-.55-3.32 0-1.63.66-3.35.67-1.72 2.06-3.58l5.52-7.41q.29-.38.84-.65.55-.28 1.27-.28zm-5.97 20.16q.95 0 1.74-.32t1.36-.89q.57-.58.89-1.35.32-.78.32-1.69 0-.99-.31-1.79-.3-.79-.86-1.34t-1.34-.84q-.79-.29-1.73-.29-.95 0-1.71.32-.77.32-1.32.89-.54.57-.84 1.34-.31.78-.31 1.68 0 .96.27 1.75.26.79.78 1.35t1.29.87 1.77.31m27.08-8.59q0 3.03-.65 5.26t-1.79 3.69q-1.15 1.45-2.71 2.16-1.56.72-3.37.72-1.8 0-3.35-.72-1.54-.71-2.68-2.16-1.13-1.46-1.77-3.69t-.64-5.26q0-3.04.64-5.26.64-2.23 1.77-3.68 1.14-1.46 2.68-2.17 1.55-.71 3.35-.71 1.81 0 3.37.71t2.71 2.17q1.14 1.45 1.79 3.68.65 2.22.65 5.26m-4.08 0q0-2.51-.37-4.16t-.99-2.62q-.61-.98-1.41-1.37t-1.67-.39q-.84 0-1.64.39-.79.39-1.4 1.37-.6.97-.96 2.62t-.36 4.16.36 4.16.96 2.63q.61.97 1.4 1.36.8.4 1.64.4.87 0 1.67-.4.8-.39 1.41-1.36.62-.98.99-2.63t.37-4.16"/></svg>