<svg width="251" height="107" viewBox="0 0 251 107" fill="none" xmlns="http://www.w3.org/2000/svg">
<rect x="220" y="36.5996" width="32" height="220" rx="8" transform="rotate(90 220 36.5996)" fill="#1D1D1D"/>
<rect x="220" y="36.5996" width="32" height="220" rx="8" transform="rotate(90 220 36.5996)" fill="black" fill-opacity="0.2"/>
<rect x="220" y="36.5996" width="32" height="220" rx="8" transform="rotate(90 220 36.5996)" fill="black" fill-opacity="0.2"/>
<rect x="220" y="36.5996" width="32" height="220" rx="8" transform="rotate(90 220 36.5996)" fill="black" fill-opacity="0.2"/>
<rect x="220" y="36.5996" width="32" height="220" rx="8" transform="rotate(90 220 36.5996)" fill="black" fill-opacity="0.2"/>
<rect x="220" y="36.5996" width="32" height="220" rx="8" transform="rotate(90 220 36.5996)" fill="black" fill-opacity="0.2"/>
<rect x="220" y="36.5996" width="32" height="220" rx="8" transform="rotate(90 220 36.5996)" fill="black" fill-opacity="0.2"/>
<rect x="220" y="36.5996" width="32" height="220" rx="8" transform="rotate(90 220 36.5996)" fill="black" fill-opacity="0.2"/>
<rect x="242" y="0.599609" width="32" height="202" rx="8" transform="rotate(90 242 0.599609)" fill="#1D1D1D"/>
<rect x="242" y="0.599609" width="32" height="202" rx="8" transform="rotate(90 242 0.599609)" fill="black" fill-opacity="0.2"/>
<rect x="242" y="0.599609" width="32" height="202" rx="8" transform="rotate(90 242 0.599609)" fill="black" fill-opacity="0.2"/>
<rect x="242" y="0.599609" width="32" height="202" rx="8" transform="rotate(90 242 0.599609)" fill="black" fill-opacity="0.2"/>
<rect x="242" y="0.599609" width="32" height="202" rx="8" transform="rotate(90 242 0.599609)" fill="black" fill-opacity="0.2"/>
<rect x="242" y="0.599609" width="32" height="202" rx="8" transform="rotate(90 242 0.599609)" fill="black" fill-opacity="0.2"/>
<rect x="242" y="0.599609" width="32" height="202" rx="8" transform="rotate(90 242 0.599609)" fill="black" fill-opacity="0.2"/>
<rect x="242" y="0.599609" width="32" height="202" rx="8" transform="rotate(90 242 0.599609)" fill="black" fill-opacity="0.2"/>
<rect x="251" y="73.5996" width="33" height="232" rx="8" transform="rotate(90 251 73.5996)" fill="#FF6400"/>
</svg>
