<svg width="296" height="230" viewBox="0 0 296 230" fill="none" xmlns="http://www.w3.org/2000/svg">
<rect y="9.55273" width="35.8533" height="215.612" rx="8" transform="rotate(-6.18599 0 9.55273)" fill="#FF6400"/>
<rect x="88.0278" y="3.98828" width="36.837" height="218.839" rx="8" transform="rotate(6.59919 88.0278 3.98828)" fill="#FF6400"/>
<rect x="128.621" y="5.39062" width="37.3396" height="218.829" rx="8" transform="rotate(-0.0158068 128.621 5.39062)" fill="#1D1D1D"/>
<rect x="128.621" y="5.39062" width="37.3396" height="218.829" rx="8" transform="rotate(-0.0158068 128.621 5.39062)" fill="black" fill-opacity="0.2"/>
<rect x="128.621" y="5.39062" width="37.3396" height="218.829" rx="8" transform="rotate(-0.0158068 128.621 5.39062)" fill="black" fill-opacity="0.2"/>
<rect x="128.621" y="5.39062" width="37.3396" height="218.829" rx="8" transform="rotate(-0.0158068 128.621 5.39062)" fill="black" fill-opacity="0.2"/>
<rect x="128.621" y="5.39062" width="37.3396" height="218.829" rx="8" transform="rotate(-0.0158068 128.621 5.39062)" fill="black" fill-opacity="0.2"/>
<rect x="128.621" y="5.39062" width="37.3396" height="218.829" rx="8" transform="rotate(-0.0158068 128.621 5.39062)" fill="black" fill-opacity="0.2"/>
<rect x="128.621" y="5.39062" width="37.3396" height="218.829" rx="8" transform="rotate(-0.0158068 128.621 5.39062)" fill="black" fill-opacity="0.2"/>
<rect x="128.621" y="5.39062" width="37.3396" height="218.829" rx="8" transform="rotate(-0.0158068 128.621 5.39062)" fill="black" fill-opacity="0.2"/>
<rect x="170.021" y="4.56445" width="38.4297" height="224.937" rx="8" transform="rotate(-5.25592 170.021 4.56445)" fill="#FF6400"/>
<rect x="257.763" width="38.3111" height="226.766" rx="8" transform="rotate(6.29616 257.763 0)" fill="#1D1D1D"/>
<rect x="257.763" width="38.3111" height="226.766" rx="8" transform="rotate(6.29616 257.763 0)" fill="black" fill-opacity="0.2"/>
<rect x="257.763" width="38.3111" height="226.766" rx="8" transform="rotate(6.29616 257.763 0)" fill="black" fill-opacity="0.2"/>
<rect x="257.763" width="38.3111" height="226.766" rx="8" transform="rotate(6.29616 257.763 0)" fill="black" fill-opacity="0.2"/>
<rect x="257.763" width="38.3111" height="226.766" rx="8" transform="rotate(6.29616 257.763 0)" fill="black" fill-opacity="0.2"/>
<rect x="257.763" width="38.3111" height="226.766" rx="8" transform="rotate(6.29616 257.763 0)" fill="black" fill-opacity="0.2"/>
<rect x="257.763" width="38.3111" height="226.766" rx="8" transform="rotate(6.29616 257.763 0)" fill="black" fill-opacity="0.2"/>
<rect x="257.763" width="38.3111" height="226.766" rx="8" transform="rotate(6.29616 257.763 0)" fill="black" fill-opacity="0.2"/>
</svg>
