<svg width="21" height="21" viewBox="0 0 21 21" fill="none" xmlns="http://www.w3.org/2000/svg">
<path d="M13.5 6.49707L17.5 10.4991L13.5 14.5001" stroke="#1D1D1D" stroke-linecap="round" stroke-linejoin="round"/>
<path d="M13.5 6.49707L17.5 10.4991L13.5 14.5001" stroke="black" stroke-opacity="0.2" stroke-linecap="round" stroke-linejoin="round"/>
<path d="M13.5 6.49707L17.5 10.4991L13.5 14.5001" stroke="black" stroke-opacity="0.2" stroke-linecap="round" stroke-linejoin="round"/>
<path d="M13.5 6.49707L17.5 10.4991L13.5 14.5001" stroke="black" stroke-opacity="0.2" stroke-linecap="round" stroke-linejoin="round"/>
<path d="M13.5 6.49707L17.5 10.4991L13.5 14.5001" stroke="black" stroke-opacity="0.2" stroke-linecap="round" stroke-linejoin="round"/>
<path d="M13.5 6.49707L17.5 10.4991L13.5 14.5001" stroke="black" stroke-opacity="0.2" stroke-linecap="round" stroke-linejoin="round"/>
<path d="M13.5 6.49707L17.5 10.4991L13.5 14.5001" stroke="black" stroke-opacity="0.2" stroke-linecap="round" stroke-linejoin="round"/>
<path d="M13.5 6.49707L17.5 10.4991L13.5 14.5001" stroke="black" stroke-opacity="0.2" stroke-linecap="round" stroke-linejoin="round"/>
<path d="M4.5 10.5H17.5" stroke="#1D1D1D" stroke-linecap="round" stroke-linejoin="round"/>
<path d="M4.5 10.5H17.5" stroke="black" stroke-opacity="0.2" stroke-linecap="round" stroke-linejoin="round"/>
<path d="M4.5 10.5H17.5" stroke="black" stroke-opacity="0.2" stroke-linecap="round" stroke-linejoin="round"/>
<path d="M4.5 10.5H17.5" stroke="black" stroke-opacity="0.2" stroke-linecap="round" stroke-linejoin="round"/>
<path d="M4.5 10.5H17.5" stroke="black" stroke-opacity="0.2" stroke-linecap="round" stroke-linejoin="round"/>
<path d="M4.5 10.5H17.5" stroke="black" stroke-opacity="0.2" stroke-linecap="round" stroke-linejoin="round"/>
<path d="M4.5 10.5H17.5" stroke="black" stroke-opacity="0.2" stroke-linecap="round" stroke-linejoin="round"/>
<path d="M4.5 10.5H17.5" stroke="black" stroke-opacity="0.2" stroke-linecap="round" stroke-linejoin="round"/>
</svg>
