<svg width="21" height="21" viewBox="0 0 21 21" fill="none" xmlns="http://www.w3.org/2000/svg">
<path d="M5 6.5H17.5L15.9144 12.0494C15.6691 12.908 14.8844 13.5 13.9914 13.5H7.29009C6.27099 13.5 5.41486 12.7337 5.30232 11.7209L4.5 4.5H2.5" stroke="#1D1D1D" stroke-linecap="round" stroke-linejoin="round"/>
<path d="M5 6.5H17.5L15.9144 12.0494C15.6691 12.908 14.8844 13.5 13.9914 13.5H7.29009C6.27099 13.5 5.41486 12.7337 5.30232 11.7209L4.5 4.5H2.5" stroke="black" stroke-opacity="0.2" stroke-linecap="round" stroke-linejoin="round"/>
<path d="M5 6.5H17.5L15.9144 12.0494C15.6691 12.908 14.8844 13.5 13.9914 13.5H7.29009C6.27099 13.5 5.41486 12.7337 5.30232 11.7209L4.5 4.5H2.5" stroke="black" stroke-opacity="0.2" stroke-linecap="round" stroke-linejoin="round"/>
<path d="M5 6.5H17.5L15.9144 12.0494C15.6691 12.908 14.8844 13.5 13.9914 13.5H7.29009C6.27099 13.5 5.41486 12.7337 5.30232 11.7209L4.5 4.5H2.5" stroke="black" stroke-opacity="0.2" stroke-linecap="round" stroke-linejoin="round"/>
<path d="M5 6.5H17.5L15.9144 12.0494C15.6691 12.908 14.8844 13.5 13.9914 13.5H7.29009C6.27099 13.5 5.41486 12.7337 5.30232 11.7209L4.5 4.5H2.5" stroke="black" stroke-opacity="0.2" stroke-linecap="round" stroke-linejoin="round"/>
<path d="M5 6.5H17.5L15.9144 12.0494C15.6691 12.908 14.8844 13.5 13.9914 13.5H7.29009C6.27099 13.5 5.41486 12.7337 5.30232 11.7209L4.5 4.5H2.5" stroke="black" stroke-opacity="0.2" stroke-linecap="round" stroke-linejoin="round"/>
<path d="M5 6.5H17.5L15.9144 12.0494C15.6691 12.908 14.8844 13.5 13.9914 13.5H7.29009C6.27099 13.5 5.41486 12.7337 5.30232 11.7209L4.5 4.5H2.5" stroke="black" stroke-opacity="0.2" stroke-linecap="round" stroke-linejoin="round"/>
<path d="M5 6.5H17.5L15.9144 12.0494C15.6691 12.908 14.8844 13.5 13.9914 13.5H7.29009C6.27099 13.5 5.41486 12.7337 5.30232 11.7209L4.5 4.5H2.5" stroke="black" stroke-opacity="0.2" stroke-linecap="round" stroke-linejoin="round"/>
<path d="M7 17C7.55228 17 8 16.5523 8 16C8 15.4477 7.55228 15 7 15C6.44772 15 6 15.4477 6 16C6 16.5523 6.44772 17 7 17Z" fill="#1D1D1D"/>
<path d="M7 17C7.55228 17 8 16.5523 8 16C8 15.4477 7.55228 15 7 15C6.44772 15 6 15.4477 6 16C6 16.5523 6.44772 17 7 17Z" fill="black" fill-opacity="0.2"/>
<path d="M7 17C7.55228 17 8 16.5523 8 16C8 15.4477 7.55228 15 7 15C6.44772 15 6 15.4477 6 16C6 16.5523 6.44772 17 7 17Z" fill="black" fill-opacity="0.2"/>
<path d="M7 17C7.55228 17 8 16.5523 8 16C8 15.4477 7.55228 15 7 15C6.44772 15 6 15.4477 6 16C6 16.5523 6.44772 17 7 17Z" fill="black" fill-opacity="0.2"/>
<path d="M7 17C7.55228 17 8 16.5523 8 16C8 15.4477 7.55228 15 7 15C6.44772 15 6 15.4477 6 16C6 16.5523 6.44772 17 7 17Z" fill="black" fill-opacity="0.2"/>
<path d="M7 17C7.55228 17 8 16.5523 8 16C8 15.4477 7.55228 15 7 15C6.44772 15 6 15.4477 6 16C6 16.5523 6.44772 17 7 17Z" fill="black" fill-opacity="0.2"/>
<path d="M7 17C7.55228 17 8 16.5523 8 16C8 15.4477 7.55228 15 7 15C6.44772 15 6 15.4477 6 16C6 16.5523 6.44772 17 7 17Z" fill="black" fill-opacity="0.2"/>
<path d="M7 17C7.55228 17 8 16.5523 8 16C8 15.4477 7.55228 15 7 15C6.44772 15 6 15.4477 6 16C6 16.5523 6.44772 17 7 17Z" fill="black" fill-opacity="0.2"/>
<path d="M15 17C15.5523 17 16 16.5523 16 16C16 15.4477 15.5523 15 15 15C14.4477 15 14 15.4477 14 16C14 16.5523 14.4477 17 15 17Z" fill="#1D1D1D"/>
<path d="M15 17C15.5523 17 16 16.5523 16 16C16 15.4477 15.5523 15 15 15C14.4477 15 14 15.4477 14 16C14 16.5523 14.4477 17 15 17Z" fill="black" fill-opacity="0.2"/>
<path d="M15 17C15.5523 17 16 16.5523 16 16C16 15.4477 15.5523 15 15 15C14.4477 15 14 15.4477 14 16C14 16.5523 14.4477 17 15 17Z" fill="black" fill-opacity="0.2"/>
<path d="M15 17C15.5523 17 16 16.5523 16 16C16 15.4477 15.5523 15 15 15C14.4477 15 14 15.4477 14 16C14 16.5523 14.4477 17 15 17Z" fill="black" fill-opacity="0.2"/>
<path d="M15 17C15.5523 17 16 16.5523 16 16C16 15.4477 15.5523 15 15 15C14.4477 15 14 15.4477 14 16C14 16.5523 14.4477 17 15 17Z" fill="black" fill-opacity="0.2"/>
<path d="M15 17C15.5523 17 16 16.5523 16 16C16 15.4477 15.5523 15 15 15C14.4477 15 14 15.4477 14 16C14 16.5523 14.4477 17 15 17Z" fill="black" fill-opacity="0.2"/>
<path d="M15 17C15.5523 17 16 16.5523 16 16C16 15.4477 15.5523 15 15 15C14.4477 15 14 15.4477 14 16C14 16.5523 14.4477 17 15 17Z" fill="black" fill-opacity="0.2"/>
<path d="M15 17C15.5523 17 16 16.5523 16 16C16 15.4477 15.5523 15 15 15C14.4477 15 14 15.4477 14 16C14 16.5523 14.4477 17 15 17Z" fill="black" fill-opacity="0.2"/>
</svg>
