<svg width="21" height="21" viewBox="0 0 21 21" fill="none" xmlns="http://www.w3.org/2000/svg">
<path fill-rule="evenodd" clip-rule="evenodd" d="M5.5 4.5H15.5V16.5C15.5 17.6046 14.6046 18.5 13.5 18.5H7.5C6.39543 18.5 5.5 17.6046 5.5 16.5V4.5ZM10.5 2.5C11.5544 2.5 12.4182 3.31588 12.4945 4.35074L12.5 4.5H8.5C8.5 3.39543 9.39543 2.5 10.5 2.5Z" stroke="#1D1D1D" stroke-linecap="round" stroke-linejoin="round"/>
<path fill-rule="evenodd" clip-rule="evenodd" d="M5.5 4.5H15.5V16.5C15.5 17.6046 14.6046 18.5 13.5 18.5H7.5C6.39543 18.5 5.5 17.6046 5.5 16.5V4.5ZM10.5 2.5C11.5544 2.5 12.4182 3.31588 12.4945 4.35074L12.5 4.5H8.5C8.5 3.39543 9.39543 2.5 10.5 2.5Z" stroke="black" stroke-opacity="0.2" stroke-linecap="round" stroke-linejoin="round"/>
<path fill-rule="evenodd" clip-rule="evenodd" d="M5.5 4.5H15.5V16.5C15.5 17.6046 14.6046 18.5 13.5 18.5H7.5C6.39543 18.5 5.5 17.6046 5.5 16.5V4.5ZM10.5 2.5C11.5544 2.5 12.4182 3.31588 12.4945 4.35074L12.5 4.5H8.5C8.5 3.39543 9.39543 2.5 10.5 2.5Z" stroke="black" stroke-opacity="0.2" stroke-linecap="round" stroke-linejoin="round"/>
<path fill-rule="evenodd" clip-rule="evenodd" d="M5.5 4.5H15.5V16.5C15.5 17.6046 14.6046 18.5 13.5 18.5H7.5C6.39543 18.5 5.5 17.6046 5.5 16.5V4.5ZM10.5 2.5C11.5544 2.5 12.4182 3.31588 12.4945 4.35074L12.5 4.5H8.5C8.5 3.39543 9.39543 2.5 10.5 2.5Z" stroke="black" stroke-opacity="0.2" stroke-linecap="round" stroke-linejoin="round"/>
<path fill-rule="evenodd" clip-rule="evenodd" d="M5.5 4.5H15.5V16.5C15.5 17.6046 14.6046 18.5 13.5 18.5H7.5C6.39543 18.5 5.5 17.6046 5.5 16.5V4.5ZM10.5 2.5C11.5544 2.5 12.4182 3.31588 12.4945 4.35074L12.5 4.5H8.5C8.5 3.39543 9.39543 2.5 10.5 2.5Z" stroke="black" stroke-opacity="0.2" stroke-linecap="round" stroke-linejoin="round"/>
<path fill-rule="evenodd" clip-rule="evenodd" d="M5.5 4.5H15.5V16.5C15.5 17.6046 14.6046 18.5 13.5 18.5H7.5C6.39543 18.5 5.5 17.6046 5.5 16.5V4.5ZM10.5 2.5C11.5544 2.5 12.4182 3.31588 12.4945 4.35074L12.5 4.5H8.5C8.5 3.39543 9.39543 2.5 10.5 2.5Z" stroke="black" stroke-opacity="0.2" stroke-linecap="round" stroke-linejoin="round"/>
<path fill-rule="evenodd" clip-rule="evenodd" d="M5.5 4.5H15.5V16.5C15.5 17.6046 14.6046 18.5 13.5 18.5H7.5C6.39543 18.5 5.5 17.6046 5.5 16.5V4.5ZM10.5 2.5C11.5544 2.5 12.4182 3.31588 12.4945 4.35074L12.5 4.5H8.5C8.5 3.39543 9.39543 2.5 10.5 2.5Z" stroke="black" stroke-opacity="0.2" stroke-linecap="round" stroke-linejoin="round"/>
<path fill-rule="evenodd" clip-rule="evenodd" d="M5.5 4.5H15.5V16.5C15.5 17.6046 14.6046 18.5 13.5 18.5H7.5C6.39543 18.5 5.5 17.6046 5.5 16.5V4.5ZM10.5 2.5C11.5544 2.5 12.4182 3.31588 12.4945 4.35074L12.5 4.5H8.5C8.5 3.39543 9.39543 2.5 10.5 2.5Z" stroke="black" stroke-opacity="0.2" stroke-linecap="round" stroke-linejoin="round"/>
<path d="M3.5 4.5H17.5" stroke="#1D1D1D" stroke-linecap="round" stroke-linejoin="round"/>
<path d="M3.5 4.5H17.5" stroke="black" stroke-opacity="0.2" stroke-linecap="round" stroke-linejoin="round"/>
<path d="M3.5 4.5H17.5" stroke="black" stroke-opacity="0.2" stroke-linecap="round" stroke-linejoin="round"/>
<path d="M3.5 4.5H17.5" stroke="black" stroke-opacity="0.2" stroke-linecap="round" stroke-linejoin="round"/>
<path d="M3.5 4.5H17.5" stroke="black" stroke-opacity="0.2" stroke-linecap="round" stroke-linejoin="round"/>
<path d="M3.5 4.5H17.5" stroke="black" stroke-opacity="0.2" stroke-linecap="round" stroke-linejoin="round"/>
<path d="M3.5 4.5H17.5" stroke="black" stroke-opacity="0.2" stroke-linecap="round" stroke-linejoin="round"/>
<path d="M3.5 4.5H17.5" stroke="black" stroke-opacity="0.2" stroke-linecap="round" stroke-linejoin="round"/>
<path d="M8.5 7.5V15.5" stroke="#1D1D1D" stroke-linecap="round" stroke-linejoin="round"/>
<path d="M8.5 7.5V15.5" stroke="black" stroke-opacity="0.2" stroke-linecap="round" stroke-linejoin="round"/>
<path d="M8.5 7.5V15.5" stroke="black" stroke-opacity="0.2" stroke-linecap="round" stroke-linejoin="round"/>
<path d="M8.5 7.5V15.5" stroke="black" stroke-opacity="0.2" stroke-linecap="round" stroke-linejoin="round"/>
<path d="M8.5 7.5V15.5" stroke="black" stroke-opacity="0.2" stroke-linecap="round" stroke-linejoin="round"/>
<path d="M8.5 7.5V15.5" stroke="black" stroke-opacity="0.2" stroke-linecap="round" stroke-linejoin="round"/>
<path d="M8.5 7.5V15.5" stroke="black" stroke-opacity="0.2" stroke-linecap="round" stroke-linejoin="round"/>
<path d="M8.5 7.5V15.5" stroke="black" stroke-opacity="0.2" stroke-linecap="round" stroke-linejoin="round"/>
<path d="M12.5 7.5V15.5" stroke="#1D1D1D" stroke-linecap="round" stroke-linejoin="round"/>
<path d="M12.5 7.5V15.5" stroke="black" stroke-opacity="0.2" stroke-linecap="round" stroke-linejoin="round"/>
<path d="M12.5 7.5V15.5" stroke="black" stroke-opacity="0.2" stroke-linecap="round" stroke-linejoin="round"/>
<path d="M12.5 7.5V15.5" stroke="black" stroke-opacity="0.2" stroke-linecap="round" stroke-linejoin="round"/>
<path d="M12.5 7.5V15.5" stroke="black" stroke-opacity="0.2" stroke-linecap="round" stroke-linejoin="round"/>
<path d="M12.5 7.5V15.5" stroke="black" stroke-opacity="0.2" stroke-linecap="round" stroke-linejoin="round"/>
<path d="M12.5 7.5V15.5" stroke="black" stroke-opacity="0.2" stroke-linecap="round" stroke-linejoin="round"/>
<path d="M12.5 7.5V15.5" stroke="black" stroke-opacity="0.2" stroke-linecap="round" stroke-linejoin="round"/>
</svg>
