<svg width="22" height="21" viewBox="0 0 22 21" fill="none" xmlns="http://www.w3.org/2000/svg">
<path d="M10.9995 6.49983C11.4995 3.99983 15.3426 3.84297 16.9995 5.49983C18.6029 7.10324 18.4994 9.83422 16.9995 11.4998L10.9995 17.4998L4.99948 11.4998C3.34262 9.84297 3.34262 7.15668 4.99948 5.49983C6.54944 3.94987 10.4995 3.99983 10.9995 6.49983Z" fill="#1D1D1D"/>
<path d="M10.9995 6.49983C11.4995 3.99983 15.3426 3.84297 16.9995 5.49983C18.6029 7.10324 18.4994 9.83422 16.9995 11.4998L10.9995 17.4998L4.99948 11.4998C3.34262 9.84297 3.34262 7.15668 4.99948 5.49983C6.54944 3.94987 10.4995 3.99983 10.9995 6.49983Z" fill="black" fill-opacity="0.2"/>
<path d="M10.9995 6.49983C11.4995 3.99983 15.3426 3.84297 16.9995 5.49983C18.6029 7.10324 18.4994 9.83422 16.9995 11.4998L10.9995 17.4998L4.99948 11.4998C3.34262 9.84297 3.34262 7.15668 4.99948 5.49983C6.54944 3.94987 10.4995 3.99983 10.9995 6.49983Z" fill="black" fill-opacity="0.2"/>
<path d="M10.9995 6.49983C11.4995 3.99983 15.3426 3.84297 16.9995 5.49983C18.6029 7.10324 18.4994 9.83422 16.9995 11.4998L10.9995 17.4998L4.99948 11.4998C3.34262 9.84297 3.34262 7.15668 4.99948 5.49983C6.54944 3.94987 10.4995 3.99983 10.9995 6.49983Z" fill="black" fill-opacity="0.2"/>
<path d="M10.9995 6.49983C11.4995 3.99983 15.3426 3.84297 16.9995 5.49983C18.6029 7.10324 18.4994 9.83422 16.9995 11.4998L10.9995 17.4998L4.99948 11.4998C3.34262 9.84297 3.34262 7.15668 4.99948 5.49983C6.54944 3.94987 10.4995 3.99983 10.9995 6.49983Z" fill="black" fill-opacity="0.2"/>
<path d="M10.9995 6.49983C11.4995 3.99983 15.3426 3.84297 16.9995 5.49983C18.6029 7.10324 18.4994 9.83422 16.9995 11.4998L10.9995 17.4998L4.99948 11.4998C3.34262 9.84297 3.34262 7.15668 4.99948 5.49983C6.54944 3.94987 10.4995 3.99983 10.9995 6.49983Z" fill="black" fill-opacity="0.2"/>
<path d="M10.9995 6.49983C11.4995 3.99983 15.3426 3.84297 16.9995 5.49983C18.6029 7.10324 18.4994 9.83422 16.9995 11.4998L10.9995 17.4998L4.99948 11.4998C3.34262 9.84297 3.34262 7.15668 4.99948 5.49983C6.54944 3.94987 10.4995 3.99983 10.9995 6.49983Z" fill="black" fill-opacity="0.2"/>
<path d="M10.9995 6.49983C11.4995 3.99983 15.3426 3.84297 16.9995 5.49983C18.6029 7.10324 18.4994 9.83422 16.9995 11.4998L10.9995 17.4998L4.99948 11.4998C3.34262 9.84297 3.34262 7.15668 4.99948 5.49983C6.54944 3.94987 10.4995 3.99983 10.9995 6.49983Z" fill="black" fill-opacity="0.2"/>
<path d="M10.9995 6.49983C11.4995 3.99983 15.3426 3.84297 16.9995 5.49983C18.6029 7.10324 18.4994 9.83422 16.9995 11.4998L10.9995 17.4998L4.99948 11.4998C3.34262 9.84297 3.34262 7.15668 4.99948 5.49983C6.54944 3.94987 10.4995 3.99983 10.9995 6.49983Z" stroke="#1D1D1D" stroke-linecap="round" stroke-linejoin="round"/>
<path d="M10.9995 6.49983C11.4995 3.99983 15.3426 3.84297 16.9995 5.49983C18.6029 7.10324 18.4994 9.83422 16.9995 11.4998L10.9995 17.4998L4.99948 11.4998C3.34262 9.84297 3.34262 7.15668 4.99948 5.49983C6.54944 3.94987 10.4995 3.99983 10.9995 6.49983Z" stroke="black" stroke-opacity="0.2" stroke-linecap="round" stroke-linejoin="round"/>
<path d="M10.9995 6.49983C11.4995 3.99983 15.3426 3.84297 16.9995 5.49983C18.6029 7.10324 18.4994 9.83422 16.9995 11.4998L10.9995 17.4998L4.99948 11.4998C3.34262 9.84297 3.34262 7.15668 4.99948 5.49983C6.54944 3.94987 10.4995 3.99983 10.9995 6.49983Z" stroke="black" stroke-opacity="0.2" stroke-linecap="round" stroke-linejoin="round"/>
<path d="M10.9995 6.49983C11.4995 3.99983 15.3426 3.84297 16.9995 5.49983C18.6029 7.10324 18.4994 9.83422 16.9995 11.4998L10.9995 17.4998L4.99948 11.4998C3.34262 9.84297 3.34262 7.15668 4.99948 5.49983C6.54944 3.94987 10.4995 3.99983 10.9995 6.49983Z" stroke="black" stroke-opacity="0.2" stroke-linecap="round" stroke-linejoin="round"/>
<path d="M10.9995 6.49983C11.4995 3.99983 15.3426 3.84297 16.9995 5.49983C18.6029 7.10324 18.4994 9.83422 16.9995 11.4998L10.9995 17.4998L4.99948 11.4998C3.34262 9.84297 3.34262 7.15668 4.99948 5.49983C6.54944 3.94987 10.4995 3.99983 10.9995 6.49983Z" stroke="black" stroke-opacity="0.2" stroke-linecap="round" stroke-linejoin="round"/>
<path d="M10.9995 6.49983C11.4995 3.99983 15.3426 3.84297 16.9995 5.49983C18.6029 7.10324 18.4994 9.83422 16.9995 11.4998L10.9995 17.4998L4.99948 11.4998C3.34262 9.84297 3.34262 7.15668 4.99948 5.49983C6.54944 3.94987 10.4995 3.99983 10.9995 6.49983Z" stroke="black" stroke-opacity="0.2" stroke-linecap="round" stroke-linejoin="round"/>
<path d="M10.9995 6.49983C11.4995 3.99983 15.3426 3.84297 16.9995 5.49983C18.6029 7.10324 18.4994 9.83422 16.9995 11.4998L10.9995 17.4998L4.99948 11.4998C3.34262 9.84297 3.34262 7.15668 4.99948 5.49983C6.54944 3.94987 10.4995 3.99983 10.9995 6.49983Z" stroke="black" stroke-opacity="0.2" stroke-linecap="round" stroke-linejoin="round"/>
<path d="M10.9995 6.49983C11.4995 3.99983 15.3426 3.84297 16.9995 5.49983C18.6029 7.10324 18.4994 9.83422 16.9995 11.4998L10.9995 17.4998L4.99948 11.4998C3.34262 9.84297 3.34262 7.15668 4.99948 5.49983C6.54944 3.94987 10.4995 3.99983 10.9995 6.49983Z" stroke="black" stroke-opacity="0.2" stroke-linecap="round" stroke-linejoin="round"/>
</svg>
