<svg width="21" height="22" viewBox="0 0 21 22" fill="none" xmlns="http://www.w3.org/2000/svg">
<path d="M8.5 14C11.2614 14 13.5 11.7614 13.5 9C13.5 6.23858 11.2614 4 8.5 4C5.73858 4 3.5 6.23858 3.5 9C3.5 11.7614 5.73858 14 8.5 14Z" stroke="#1D1D1D" stroke-linecap="round" stroke-linejoin="round"/>
<path d="M8.5 14C11.2614 14 13.5 11.7614 13.5 9C13.5 6.23858 11.2614 4 8.5 4C5.73858 4 3.5 6.23858 3.5 9C3.5 11.7614 5.73858 14 8.5 14Z" stroke="black" stroke-opacity="0.2" stroke-linecap="round" stroke-linejoin="round"/>
<path d="M8.5 14C11.2614 14 13.5 11.7614 13.5 9C13.5 6.23858 11.2614 4 8.5 4C5.73858 4 3.5 6.23858 3.5 9C3.5 11.7614 5.73858 14 8.5 14Z" stroke="black" stroke-opacity="0.2" stroke-linecap="round" stroke-linejoin="round"/>
<path d="M8.5 14C11.2614 14 13.5 11.7614 13.5 9C13.5 6.23858 11.2614 4 8.5 4C5.73858 4 3.5 6.23858 3.5 9C3.5 11.7614 5.73858 14 8.5 14Z" stroke="black" stroke-opacity="0.2" stroke-linecap="round" stroke-linejoin="round"/>
<path d="M8.5 14C11.2614 14 13.5 11.7614 13.5 9C13.5 6.23858 11.2614 4 8.5 4C5.73858 4 3.5 6.23858 3.5 9C3.5 11.7614 5.73858 14 8.5 14Z" stroke="black" stroke-opacity="0.2" stroke-linecap="round" stroke-linejoin="round"/>
<path d="M8.5 14C11.2614 14 13.5 11.7614 13.5 9C13.5 6.23858 11.2614 4 8.5 4C5.73858 4 3.5 6.23858 3.5 9C3.5 11.7614 5.73858 14 8.5 14Z" stroke="black" stroke-opacity="0.2" stroke-linecap="round" stroke-linejoin="round"/>
<path d="M8.5 14C11.2614 14 13.5 11.7614 13.5 9C13.5 6.23858 11.2614 4 8.5 4C5.73858 4 3.5 6.23858 3.5 9C3.5 11.7614 5.73858 14 8.5 14Z" stroke="black" stroke-opacity="0.2" stroke-linecap="round" stroke-linejoin="round"/>
<path d="M8.5 14C11.2614 14 13.5 11.7614 13.5 9C13.5 6.23858 11.2614 4 8.5 4C5.73858 4 3.5 6.23858 3.5 9C3.5 11.7614 5.73858 14 8.5 14Z" stroke="black" stroke-opacity="0.2" stroke-linecap="round" stroke-linejoin="round"/>
<path d="M17.571 18L12 12.5" stroke="#1D1D1D" stroke-linecap="round" stroke-linejoin="round"/>
<path d="M17.571 18L12 12.5" stroke="black" stroke-opacity="0.2" stroke-linecap="round" stroke-linejoin="round"/>
<path d="M17.571 18L12 12.5" stroke="black" stroke-opacity="0.2" stroke-linecap="round" stroke-linejoin="round"/>
<path d="M17.571 18L12 12.5" stroke="black" stroke-opacity="0.2" stroke-linecap="round" stroke-linejoin="round"/>
<path d="M17.571 18L12 12.5" stroke="black" stroke-opacity="0.2" stroke-linecap="round" stroke-linejoin="round"/>
<path d="M17.571 18L12 12.5" stroke="black" stroke-opacity="0.2" stroke-linecap="round" stroke-linejoin="round"/>
<path d="M17.571 18L12 12.5" stroke="black" stroke-opacity="0.2" stroke-linecap="round" stroke-linejoin="round"/>
<path d="M17.571 18L12 12.5" stroke="black" stroke-opacity="0.2" stroke-linecap="round" stroke-linejoin="round"/>
</svg>
