<svg width="21" height="22" viewBox="0 0 21 22" fill="none" xmlns="http://www.w3.org/2000/svg">
<path fill-rule="evenodd" clip-rule="evenodd" d="M10.5 4C10.8513 4 11.1966 4.02588 11.534 4.07584L12.0419 5.61496C12.4873 5.74226 12.9101 5.92335 13.3027 6.15074L14.7627 5.44713C15.2793 5.84432 15.739 6.312 16.1272 6.83578L15.3979 8.28299C15.6181 8.67903 15.7916 9.10458 15.911 9.55219L17.4409 10.086C17.4799 10.3851 17.5 10.6902 17.5 11C17.5 11.3513 17.4741 11.6966 17.4242 12.034L15.885 12.5419C15.7577 12.9873 15.5767 13.4101 15.3493 13.8027L16.0529 15.2627C15.6557 15.7793 15.188 16.239 14.6642 16.6272L13.217 15.8979C12.821 16.1181 12.3954 16.2916 11.9478 16.411L11.414 17.9409C11.1149 17.9799 10.8098 18 10.5 18C10.1487 18 9.80339 17.9741 9.46596 17.9242L8.9581 16.385C8.51265 16.2577 8.0899 16.0767 7.69731 15.8493L6.23731 16.5529C5.72067 16.1557 5.26103 15.688 4.87279 15.1642L5.60211 13.717C5.38178 13.3207 5.20816 12.8948 5.08869 12.4468L3.559 11.913C3.52008 11.6142 3.5 11.3094 3.5 11C3.5 10.6487 3.52588 10.3034 3.57584 9.96596L5.11496 9.4581C5.24226 9.01265 5.42335 8.5899 5.65074 8.19731L4.94713 6.73731C5.34432 6.22067 5.812 5.76103 6.33578 5.37279L7.78299 6.10211C8.17933 5.88178 8.60521 5.70816 9.05319 5.58869L9.58701 4.059C9.88583 4.02008 10.1906 4 10.5 4Z" stroke="#1D1D1D" stroke-width="0.933" stroke-linecap="round" stroke-linejoin="round"/>
<path fill-rule="evenodd" clip-rule="evenodd" d="M10.5 4C10.8513 4 11.1966 4.02588 11.534 4.07584L12.0419 5.61496C12.4873 5.74226 12.9101 5.92335 13.3027 6.15074L14.7627 5.44713C15.2793 5.84432 15.739 6.312 16.1272 6.83578L15.3979 8.28299C15.6181 8.67903 15.7916 9.10458 15.911 9.55219L17.4409 10.086C17.4799 10.3851 17.5 10.6902 17.5 11C17.5 11.3513 17.4741 11.6966 17.4242 12.034L15.885 12.5419C15.7577 12.9873 15.5767 13.4101 15.3493 13.8027L16.0529 15.2627C15.6557 15.7793 15.188 16.239 14.6642 16.6272L13.217 15.8979C12.821 16.1181 12.3954 16.2916 11.9478 16.411L11.414 17.9409C11.1149 17.9799 10.8098 18 10.5 18C10.1487 18 9.80339 17.9741 9.46596 17.9242L8.9581 16.385C8.51265 16.2577 8.0899 16.0767 7.69731 15.8493L6.23731 16.5529C5.72067 16.1557 5.26103 15.688 4.87279 15.1642L5.60211 13.717C5.38178 13.3207 5.20816 12.8948 5.08869 12.4468L3.559 11.913C3.52008 11.6142 3.5 11.3094 3.5 11C3.5 10.6487 3.52588 10.3034 3.57584 9.96596L5.11496 9.4581C5.24226 9.01265 5.42335 8.5899 5.65074 8.19731L4.94713 6.73731C5.34432 6.22067 5.812 5.76103 6.33578 5.37279L7.78299 6.10211C8.17933 5.88178 8.60521 5.70816 9.05319 5.58869L9.58701 4.059C9.88583 4.02008 10.1906 4 10.5 4Z" stroke="black" stroke-opacity="0.2" stroke-width="0.933" stroke-linecap="round" stroke-linejoin="round"/>
<path fill-rule="evenodd" clip-rule="evenodd" d="M10.5 4C10.8513 4 11.1966 4.02588 11.534 4.07584L12.0419 5.61496C12.4873 5.74226 12.9101 5.92335 13.3027 6.15074L14.7627 5.44713C15.2793 5.84432 15.739 6.312 16.1272 6.83578L15.3979 8.28299C15.6181 8.67903 15.7916 9.10458 15.911 9.55219L17.4409 10.086C17.4799 10.3851 17.5 10.6902 17.5 11C17.5 11.3513 17.4741 11.6966 17.4242 12.034L15.885 12.5419C15.7577 12.9873 15.5767 13.4101 15.3493 13.8027L16.0529 15.2627C15.6557 15.7793 15.188 16.239 14.6642 16.6272L13.217 15.8979C12.821 16.1181 12.3954 16.2916 11.9478 16.411L11.414 17.9409C11.1149 17.9799 10.8098 18 10.5 18C10.1487 18 9.80339 17.9741 9.46596 17.9242L8.9581 16.385C8.51265 16.2577 8.0899 16.0767 7.69731 15.8493L6.23731 16.5529C5.72067 16.1557 5.26103 15.688 4.87279 15.1642L5.60211 13.717C5.38178 13.3207 5.20816 12.8948 5.08869 12.4468L3.559 11.913C3.52008 11.6142 3.5 11.3094 3.5 11C3.5 10.6487 3.52588 10.3034 3.57584 9.96596L5.11496 9.4581C5.24226 9.01265 5.42335 8.5899 5.65074 8.19731L4.94713 6.73731C5.34432 6.22067 5.812 5.76103 6.33578 5.37279L7.78299 6.10211C8.17933 5.88178 8.60521 5.70816 9.05319 5.58869L9.58701 4.059C9.88583 4.02008 10.1906 4 10.5 4Z" stroke="black" stroke-opacity="0.2" stroke-width="0.933" stroke-linecap="round" stroke-linejoin="round"/>
<path fill-rule="evenodd" clip-rule="evenodd" d="M10.5 4C10.8513 4 11.1966 4.02588 11.534 4.07584L12.0419 5.61496C12.4873 5.74226 12.9101 5.92335 13.3027 6.15074L14.7627 5.44713C15.2793 5.84432 15.739 6.312 16.1272 6.83578L15.3979 8.28299C15.6181 8.67903 15.7916 9.10458 15.911 9.55219L17.4409 10.086C17.4799 10.3851 17.5 10.6902 17.5 11C17.5 11.3513 17.4741 11.6966 17.4242 12.034L15.885 12.5419C15.7577 12.9873 15.5767 13.4101 15.3493 13.8027L16.0529 15.2627C15.6557 15.7793 15.188 16.239 14.6642 16.6272L13.217 15.8979C12.821 16.1181 12.3954 16.2916 11.9478 16.411L11.414 17.9409C11.1149 17.9799 10.8098 18 10.5 18C10.1487 18 9.80339 17.9741 9.46596 17.9242L8.9581 16.385C8.51265 16.2577 8.0899 16.0767 7.69731 15.8493L6.23731 16.5529C5.72067 16.1557 5.26103 15.688 4.87279 15.1642L5.60211 13.717C5.38178 13.3207 5.20816 12.8948 5.08869 12.4468L3.559 11.913C3.52008 11.6142 3.5 11.3094 3.5 11C3.5 10.6487 3.52588 10.3034 3.57584 9.96596L5.11496 9.4581C5.24226 9.01265 5.42335 8.5899 5.65074 8.19731L4.94713 6.73731C5.34432 6.22067 5.812 5.76103 6.33578 5.37279L7.78299 6.10211C8.17933 5.88178 8.60521 5.70816 9.05319 5.58869L9.58701 4.059C9.88583 4.02008 10.1906 4 10.5 4Z" stroke="black" stroke-opacity="0.2" stroke-width="0.933" stroke-linecap="round" stroke-linejoin="round"/>
<path fill-rule="evenodd" clip-rule="evenodd" d="M10.5 4C10.8513 4 11.1966 4.02588 11.534 4.07584L12.0419 5.61496C12.4873 5.74226 12.9101 5.92335 13.3027 6.15074L14.7627 5.44713C15.2793 5.84432 15.739 6.312 16.1272 6.83578L15.3979 8.28299C15.6181 8.67903 15.7916 9.10458 15.911 9.55219L17.4409 10.086C17.4799 10.3851 17.5 10.6902 17.5 11C17.5 11.3513 17.4741 11.6966 17.4242 12.034L15.885 12.5419C15.7577 12.9873 15.5767 13.4101 15.3493 13.8027L16.0529 15.2627C15.6557 15.7793 15.188 16.239 14.6642 16.6272L13.217 15.8979C12.821 16.1181 12.3954 16.2916 11.9478 16.411L11.414 17.9409C11.1149 17.9799 10.8098 18 10.5 18C10.1487 18 9.80339 17.9741 9.46596 17.9242L8.9581 16.385C8.51265 16.2577 8.0899 16.0767 7.69731 15.8493L6.23731 16.5529C5.72067 16.1557 5.26103 15.688 4.87279 15.1642L5.60211 13.717C5.38178 13.3207 5.20816 12.8948 5.08869 12.4468L3.559 11.913C3.52008 11.6142 3.5 11.3094 3.5 11C3.5 10.6487 3.52588 10.3034 3.57584 9.96596L5.11496 9.4581C5.24226 9.01265 5.42335 8.5899 5.65074 8.19731L4.94713 6.73731C5.34432 6.22067 5.812 5.76103 6.33578 5.37279L7.78299 6.10211C8.17933 5.88178 8.60521 5.70816 9.05319 5.58869L9.58701 4.059C9.88583 4.02008 10.1906 4 10.5 4Z" stroke="black" stroke-opacity="0.2" stroke-width="0.933" stroke-linecap="round" stroke-linejoin="round"/>
<path fill-rule="evenodd" clip-rule="evenodd" d="M10.5 4C10.8513 4 11.1966 4.02588 11.534 4.07584L12.0419 5.61496C12.4873 5.74226 12.9101 5.92335 13.3027 6.15074L14.7627 5.44713C15.2793 5.84432 15.739 6.312 16.1272 6.83578L15.3979 8.28299C15.6181 8.67903 15.7916 9.10458 15.911 9.55219L17.4409 10.086C17.4799 10.3851 17.5 10.6902 17.5 11C17.5 11.3513 17.4741 11.6966 17.4242 12.034L15.885 12.5419C15.7577 12.9873 15.5767 13.4101 15.3493 13.8027L16.0529 15.2627C15.6557 15.7793 15.188 16.239 14.6642 16.6272L13.217 15.8979C12.821 16.1181 12.3954 16.2916 11.9478 16.411L11.414 17.9409C11.1149 17.9799 10.8098 18 10.5 18C10.1487 18 9.80339 17.9741 9.46596 17.9242L8.9581 16.385C8.51265 16.2577 8.0899 16.0767 7.69731 15.8493L6.23731 16.5529C5.72067 16.1557 5.26103 15.688 4.87279 15.1642L5.60211 13.717C5.38178 13.3207 5.20816 12.8948 5.08869 12.4468L3.559 11.913C3.52008 11.6142 3.5 11.3094 3.5 11C3.5 10.6487 3.52588 10.3034 3.57584 9.96596L5.11496 9.4581C5.24226 9.01265 5.42335 8.5899 5.65074 8.19731L4.94713 6.73731C5.34432 6.22067 5.812 5.76103 6.33578 5.37279L7.78299 6.10211C8.17933 5.88178 8.60521 5.70816 9.05319 5.58869L9.58701 4.059C9.88583 4.02008 10.1906 4 10.5 4Z" stroke="black" stroke-opacity="0.2" stroke-width="0.933" stroke-linecap="round" stroke-linejoin="round"/>
<path fill-rule="evenodd" clip-rule="evenodd" d="M10.5 4C10.8513 4 11.1966 4.02588 11.534 4.07584L12.0419 5.61496C12.4873 5.74226 12.9101 5.92335 13.3027 6.15074L14.7627 5.44713C15.2793 5.84432 15.739 6.312 16.1272 6.83578L15.3979 8.28299C15.6181 8.67903 15.7916 9.10458 15.911 9.55219L17.4409 10.086C17.4799 10.3851 17.5 10.6902 17.5 11C17.5 11.3513 17.4741 11.6966 17.4242 12.034L15.885 12.5419C15.7577 12.9873 15.5767 13.4101 15.3493 13.8027L16.0529 15.2627C15.6557 15.7793 15.188 16.239 14.6642 16.6272L13.217 15.8979C12.821 16.1181 12.3954 16.2916 11.9478 16.411L11.414 17.9409C11.1149 17.9799 10.8098 18 10.5 18C10.1487 18 9.80339 17.9741 9.46596 17.9242L8.9581 16.385C8.51265 16.2577 8.0899 16.0767 7.69731 15.8493L6.23731 16.5529C5.72067 16.1557 5.26103 15.688 4.87279 15.1642L5.60211 13.717C5.38178 13.3207 5.20816 12.8948 5.08869 12.4468L3.559 11.913C3.52008 11.6142 3.5 11.3094 3.5 11C3.5 10.6487 3.52588 10.3034 3.57584 9.96596L5.11496 9.4581C5.24226 9.01265 5.42335 8.5899 5.65074 8.19731L4.94713 6.73731C5.34432 6.22067 5.812 5.76103 6.33578 5.37279L7.78299 6.10211C8.17933 5.88178 8.60521 5.70816 9.05319 5.58869L9.58701 4.059C9.88583 4.02008 10.1906 4 10.5 4Z" stroke="black" stroke-opacity="0.2" stroke-width="0.933" stroke-linecap="round" stroke-linejoin="round"/>
<path fill-rule="evenodd" clip-rule="evenodd" d="M10.5 4C10.8513 4 11.1966 4.02588 11.534 4.07584L12.0419 5.61496C12.4873 5.74226 12.9101 5.92335 13.3027 6.15074L14.7627 5.44713C15.2793 5.84432 15.739 6.312 16.1272 6.83578L15.3979 8.28299C15.6181 8.67903 15.7916 9.10458 15.911 9.55219L17.4409 10.086C17.4799 10.3851 17.5 10.6902 17.5 11C17.5 11.3513 17.4741 11.6966 17.4242 12.034L15.885 12.5419C15.7577 12.9873 15.5767 13.4101 15.3493 13.8027L16.0529 15.2627C15.6557 15.7793 15.188 16.239 14.6642 16.6272L13.217 15.8979C12.821 16.1181 12.3954 16.2916 11.9478 16.411L11.414 17.9409C11.1149 17.9799 10.8098 18 10.5 18C10.1487 18 9.80339 17.9741 9.46596 17.9242L8.9581 16.385C8.51265 16.2577 8.0899 16.0767 7.69731 15.8493L6.23731 16.5529C5.72067 16.1557 5.26103 15.688 4.87279 15.1642L5.60211 13.717C5.38178 13.3207 5.20816 12.8948 5.08869 12.4468L3.559 11.913C3.52008 11.6142 3.5 11.3094 3.5 11C3.5 10.6487 3.52588 10.3034 3.57584 9.96596L5.11496 9.4581C5.24226 9.01265 5.42335 8.5899 5.65074 8.19731L4.94713 6.73731C5.34432 6.22067 5.812 5.76103 6.33578 5.37279L7.78299 6.10211C8.17933 5.88178 8.60521 5.70816 9.05319 5.58869L9.58701 4.059C9.88583 4.02008 10.1906 4 10.5 4Z" stroke="black" stroke-opacity="0.2" stroke-width="0.933" stroke-linecap="round" stroke-linejoin="round"/>
<path d="M10.5 14C12.1569 14 13.5 12.6569 13.5 11C13.5 9.34315 12.1569 8 10.5 8C8.84315 8 7.5 9.34315 7.5 11C7.5 12.6569 8.84315 14 10.5 14Z" stroke="#1D1D1D" stroke-linecap="round" stroke-linejoin="round"/>
<path d="M10.5 14C12.1569 14 13.5 12.6569 13.5 11C13.5 9.34315 12.1569 8 10.5 8C8.84315 8 7.5 9.34315 7.5 11C7.5 12.6569 8.84315 14 10.5 14Z" stroke="black" stroke-opacity="0.2" stroke-linecap="round" stroke-linejoin="round"/>
<path d="M10.5 14C12.1569 14 13.5 12.6569 13.5 11C13.5 9.34315 12.1569 8 10.5 8C8.84315 8 7.5 9.34315 7.5 11C7.5 12.6569 8.84315 14 10.5 14Z" stroke="black" stroke-opacity="0.2" stroke-linecap="round" stroke-linejoin="round"/>
<path d="M10.5 14C12.1569 14 13.5 12.6569 13.5 11C13.5 9.34315 12.1569 8 10.5 8C8.84315 8 7.5 9.34315 7.5 11C7.5 12.6569 8.84315 14 10.5 14Z" stroke="black" stroke-opacity="0.2" stroke-linecap="round" stroke-linejoin="round"/>
<path d="M10.5 14C12.1569 14 13.5 12.6569 13.5 11C13.5 9.34315 12.1569 8 10.5 8C8.84315 8 7.5 9.34315 7.5 11C7.5 12.6569 8.84315 14 10.5 14Z" stroke="black" stroke-opacity="0.2" stroke-linecap="round" stroke-linejoin="round"/>
<path d="M10.5 14C12.1569 14 13.5 12.6569 13.5 11C13.5 9.34315 12.1569 8 10.5 8C8.84315 8 7.5 9.34315 7.5 11C7.5 12.6569 8.84315 14 10.5 14Z" stroke="black" stroke-opacity="0.2" stroke-linecap="round" stroke-linejoin="round"/>
<path d="M10.5 14C12.1569 14 13.5 12.6569 13.5 11C13.5 9.34315 12.1569 8 10.5 8C8.84315 8 7.5 9.34315 7.5 11C7.5 12.6569 8.84315 14 10.5 14Z" stroke="black" stroke-opacity="0.2" stroke-linecap="round" stroke-linejoin="round"/>
<path d="M10.5 14C12.1569 14 13.5 12.6569 13.5 11C13.5 9.34315 12.1569 8 10.5 8C8.84315 8 7.5 9.34315 7.5 11C7.5 12.6569 8.84315 14 10.5 14Z" stroke="black" stroke-opacity="0.2" stroke-linecap="round" stroke-linejoin="round"/>
</svg>
