<svg width="21" height="22" viewBox="0 0 21 22" fill="none" xmlns="http://www.w3.org/2000/svg">
<path fill-rule="evenodd" clip-rule="evenodd" d="M10.5 16.5C13.6296 16.5 16.4629 14.6667 19 11C16.4629 7.33333 13.6296 5.5 10.5 5.5C7.37039 5.5 4.53705 7.33333 2 11C4.53705 14.6667 7.37039 16.5 10.5 16.5Z" stroke="#939393" stroke-linecap="round" stroke-linejoin="round"/>
<path fill-rule="evenodd" clip-rule="evenodd" d="M10.5 7.5C10.6846 7.5 10.8659 7.5143 11.0429 7.54185C11.0143 7.69074 11 7.84369 11 8C11 9.38071 12.1193 10.5 13.5 10.5C13.6563 10.5 13.8093 10.4857 13.9576 10.4582C13.9857 10.6341 14 10.8154 14 11C14 12.933 12.433 14.5 10.5 14.5C8.567 14.5 7 12.933 7 11C7 9.067 8.567 7.5 10.5 7.5Z" stroke="#939393" stroke-linecap="round" stroke-linejoin="round"/>
</svg>
