<svg width="21" height="22" viewBox="0 0 21 22" fill="none" xmlns="http://www.w3.org/2000/svg">
<path fill-rule="evenodd" clip-rule="evenodd" d="M6.5 4H14.5C15.6046 4 16.5 4.89543 16.5 6V16C16.5 17.1046 15.6046 18 14.5 18H6.5C5.39543 18 4.5 17.1046 4.5 16V6C4.5 4.89543 5.39543 4 6.5 4Z" stroke="#1D1D1D" stroke-linecap="round" stroke-linejoin="round"/>
<path fill-rule="evenodd" clip-rule="evenodd" d="M6.5 4H14.5C15.6046 4 16.5 4.89543 16.5 6V16C16.5 17.1046 15.6046 18 14.5 18H6.5C5.39543 18 4.5 17.1046 4.5 16V6C4.5 4.89543 5.39543 4 6.5 4Z" stroke="black" stroke-opacity="0.2" stroke-linecap="round" stroke-linejoin="round"/>
<path fill-rule="evenodd" clip-rule="evenodd" d="M6.5 4H14.5C15.6046 4 16.5 4.89543 16.5 6V16C16.5 17.1046 15.6046 18 14.5 18H6.5C5.39543 18 4.5 17.1046 4.5 16V6C4.5 4.89543 5.39543 4 6.5 4Z" stroke="black" stroke-opacity="0.2" stroke-linecap="round" stroke-linejoin="round"/>
<path fill-rule="evenodd" clip-rule="evenodd" d="M6.5 4H14.5C15.6046 4 16.5 4.89543 16.5 6V16C16.5 17.1046 15.6046 18 14.5 18H6.5C5.39543 18 4.5 17.1046 4.5 16V6C4.5 4.89543 5.39543 4 6.5 4Z" stroke="black" stroke-opacity="0.2" stroke-linecap="round" stroke-linejoin="round"/>
<path fill-rule="evenodd" clip-rule="evenodd" d="M6.5 4H14.5C15.6046 4 16.5 4.89543 16.5 6V16C16.5 17.1046 15.6046 18 14.5 18H6.5C5.39543 18 4.5 17.1046 4.5 16V6C4.5 4.89543 5.39543 4 6.5 4Z" stroke="black" stroke-opacity="0.2" stroke-linecap="round" stroke-linejoin="round"/>
<path fill-rule="evenodd" clip-rule="evenodd" d="M6.5 4H14.5C15.6046 4 16.5 4.89543 16.5 6V16C16.5 17.1046 15.6046 18 14.5 18H6.5C5.39543 18 4.5 17.1046 4.5 16V6C4.5 4.89543 5.39543 4 6.5 4Z" stroke="black" stroke-opacity="0.2" stroke-linecap="round" stroke-linejoin="round"/>
<path fill-rule="evenodd" clip-rule="evenodd" d="M6.5 4H14.5C15.6046 4 16.5 4.89543 16.5 6V16C16.5 17.1046 15.6046 18 14.5 18H6.5C5.39543 18 4.5 17.1046 4.5 16V6C4.5 4.89543 5.39543 4 6.5 4Z" stroke="black" stroke-opacity="0.2" stroke-linecap="round" stroke-linejoin="round"/>
<path fill-rule="evenodd" clip-rule="evenodd" d="M6.5 4H14.5C15.6046 4 16.5 4.89543 16.5 6V16C16.5 17.1046 15.6046 18 14.5 18H6.5C5.39543 18 4.5 17.1046 4.5 16V6C4.5 4.89543 5.39543 4 6.5 4Z" stroke="black" stroke-opacity="0.2" stroke-linecap="round" stroke-linejoin="round"/>
<path d="M14.2022 18L10.5572 16.0517C9.90639 15.7039 9.5 15.0259 9.5 14.2879V7.71211C9.5 6.97414 9.90639 6.29613 10.5572 5.94826L14.2022 4" stroke="#1D1D1D" stroke-linecap="round" stroke-linejoin="round"/>
<path d="M14.2022 18L10.5572 16.0517C9.90639 15.7039 9.5 15.0259 9.5 14.2879V7.71211C9.5 6.97414 9.90639 6.29613 10.5572 5.94826L14.2022 4" stroke="black" stroke-opacity="0.2" stroke-linecap="round" stroke-linejoin="round"/>
<path d="M14.2022 18L10.5572 16.0517C9.90639 15.7039 9.5 15.0259 9.5 14.2879V7.71211C9.5 6.97414 9.90639 6.29613 10.5572 5.94826L14.2022 4" stroke="black" stroke-opacity="0.2" stroke-linecap="round" stroke-linejoin="round"/>
<path d="M14.2022 18L10.5572 16.0517C9.90639 15.7039 9.5 15.0259 9.5 14.2879V7.71211C9.5 6.97414 9.90639 6.29613 10.5572 5.94826L14.2022 4" stroke="black" stroke-opacity="0.2" stroke-linecap="round" stroke-linejoin="round"/>
<path d="M14.2022 18L10.5572 16.0517C9.90639 15.7039 9.5 15.0259 9.5 14.2879V7.71211C9.5 6.97414 9.90639 6.29613 10.5572 5.94826L14.2022 4" stroke="black" stroke-opacity="0.2" stroke-linecap="round" stroke-linejoin="round"/>
<path d="M14.2022 18L10.5572 16.0517C9.90639 15.7039 9.5 15.0259 9.5 14.2879V7.71211C9.5 6.97414 9.90639 6.29613 10.5572 5.94826L14.2022 4" stroke="black" stroke-opacity="0.2" stroke-linecap="round" stroke-linejoin="round"/>
<path d="M14.2022 18L10.5572 16.0517C9.90639 15.7039 9.5 15.0259 9.5 14.2879V7.71211C9.5 6.97414 9.90639 6.29613 10.5572 5.94826L14.2022 4" stroke="black" stroke-opacity="0.2" stroke-linecap="round" stroke-linejoin="round"/>
<path d="M14.2022 18L10.5572 16.0517C9.90639 15.7039 9.5 15.0259 9.5 14.2879V7.71211C9.5 6.97414 9.90639 6.29613 10.5572 5.94826L14.2022 4" stroke="black" stroke-opacity="0.2" stroke-linecap="round" stroke-linejoin="round"/>
<path d="M11.5 12C12.0523 12 12.5 11.5523 12.5 11C12.5 10.4477 12.0523 10 11.5 10C10.9477 10 10.5 10.4477 10.5 11C10.5 11.5523 10.9477 12 11.5 12Z" fill="#1D1D1D"/>
<path d="M11.5 12C12.0523 12 12.5 11.5523 12.5 11C12.5 10.4477 12.0523 10 11.5 10C10.9477 10 10.5 10.4477 10.5 11C10.5 11.5523 10.9477 12 11.5 12Z" fill="black" fill-opacity="0.2"/>
<path d="M11.5 12C12.0523 12 12.5 11.5523 12.5 11C12.5 10.4477 12.0523 10 11.5 10C10.9477 10 10.5 10.4477 10.5 11C10.5 11.5523 10.9477 12 11.5 12Z" fill="black" fill-opacity="0.2"/>
<path d="M11.5 12C12.0523 12 12.5 11.5523 12.5 11C12.5 10.4477 12.0523 10 11.5 10C10.9477 10 10.5 10.4477 10.5 11C10.5 11.5523 10.9477 12 11.5 12Z" fill="black" fill-opacity="0.2"/>
<path d="M11.5 12C12.0523 12 12.5 11.5523 12.5 11C12.5 10.4477 12.0523 10 11.5 10C10.9477 10 10.5 10.4477 10.5 11C10.5 11.5523 10.9477 12 11.5 12Z" fill="black" fill-opacity="0.2"/>
<path d="M11.5 12C12.0523 12 12.5 11.5523 12.5 11C12.5 10.4477 12.0523 10 11.5 10C10.9477 10 10.5 10.4477 10.5 11C10.5 11.5523 10.9477 12 11.5 12Z" fill="black" fill-opacity="0.2"/>
<path d="M11.5 12C12.0523 12 12.5 11.5523 12.5 11C12.5 10.4477 12.0523 10 11.5 10C10.9477 10 10.5 10.4477 10.5 11C10.5 11.5523 10.9477 12 11.5 12Z" fill="black" fill-opacity="0.2"/>
<path d="M11.5 12C12.0523 12 12.5 11.5523 12.5 11C12.5 10.4477 12.0523 10 11.5 10C10.9477 10 10.5 10.4477 10.5 11C10.5 11.5523 10.9477 12 11.5 12Z" fill="black" fill-opacity="0.2"/>
</svg>
