<svg width="51" height="18" viewBox="0 0 51 18" fill="none" xmlns="http://www.w3.org/2000/svg">
<path d="M36.1195 4.52755C27.557 4.9307 25.7509 11.1907 25.9181 14.2703C28.5939 8.62626 36.6212 8.22309 40.3003 8.72701L36.1195 4.52755Z" fill="#1D1D1D"/>
<path d="M36.1195 4.52755C27.557 4.9307 25.7509 11.1907 25.9181 14.2703C28.5939 8.62626 36.6212 8.22309 40.3003 8.72701L36.1195 4.52755Z" fill="black" fill-opacity="0.2"/>
<path d="M36.1195 4.52755C27.557 4.9307 25.7509 11.1907 25.9181 14.2703C28.5939 8.62626 36.6212 8.22309 40.3003 8.72701L36.1195 4.52755Z" fill="black" fill-opacity="0.2"/>
<path d="M36.1195 4.52755C27.557 4.9307 25.7509 11.1907 25.9181 14.2703C28.5939 8.62626 36.6212 8.22309 40.3003 8.72701L36.1195 4.52755Z" fill="black" fill-opacity="0.2"/>
<path d="M36.1195 4.52755C27.557 4.9307 25.7509 11.1907 25.9181 14.2703C28.5939 8.62626 36.6212 8.22309 40.3003 8.72701L36.1195 4.52755Z" fill="black" fill-opacity="0.2"/>
<path d="M36.1195 4.52755C27.557 4.9307 25.7509 11.1907 25.9181 14.2703C28.5939 8.62626 36.6212 8.22309 40.3003 8.72701L36.1195 4.52755Z" fill="black" fill-opacity="0.2"/>
<path d="M36.1195 4.52755C27.557 4.9307 25.7509 11.1907 25.9181 14.2703C28.5939 8.62626 36.6212 8.22309 40.3003 8.72701L36.1195 4.52755Z" fill="black" fill-opacity="0.2"/>
<path d="M36.1195 4.52755C27.557 4.9307 25.7509 11.1907 25.9181 14.2703C28.5939 8.62626 36.6212 8.22309 40.3003 8.72701L36.1195 4.52755Z" fill="black" fill-opacity="0.2"/>
<path d="M14.7133 4.52755C23.2758 4.52755 25.0819 11.0227 24.9147 14.2703C22.3727 8.49188 14.3788 8.1671 10.6997 8.72701L10.6997 8.72698C13.2082 6.20733 13.7099 5.70339 14.7133 4.52755Z" fill="#1D1D1D"/>
<path d="M14.7133 4.52755C23.2758 4.52755 25.0819 11.0227 24.9147 14.2703C22.3727 8.49188 14.3788 8.1671 10.6997 8.72701L10.6997 8.72698C13.2082 6.20733 13.7099 5.70339 14.7133 4.52755Z" fill="black" fill-opacity="0.2"/>
<path d="M14.7133 4.52755C23.2758 4.52755 25.0819 11.0227 24.9147 14.2703C22.3727 8.49188 14.3788 8.1671 10.6997 8.72701L10.6997 8.72698C13.2082 6.20733 13.7099 5.70339 14.7133 4.52755Z" fill="black" fill-opacity="0.2"/>
<path d="M14.7133 4.52755C23.2758 4.52755 25.0819 11.0227 24.9147 14.2703C22.3727 8.49188 14.3788 8.1671 10.6997 8.72701L10.6997 8.72698C13.2082 6.20733 13.7099 5.70339 14.7133 4.52755Z" fill="black" fill-opacity="0.2"/>
<path d="M14.7133 4.52755C23.2758 4.52755 25.0819 11.0227 24.9147 14.2703C22.3727 8.49188 14.3788 8.1671 10.6997 8.72701L10.6997 8.72698C13.2082 6.20733 13.7099 5.70339 14.7133 4.52755Z" fill="black" fill-opacity="0.2"/>
<path d="M14.7133 4.52755C23.2758 4.52755 25.0819 11.0227 24.9147 14.2703C22.3727 8.49188 14.3788 8.1671 10.6997 8.72701L10.6997 8.72698C13.2082 6.20733 13.7099 5.70339 14.7133 4.52755Z" fill="black" fill-opacity="0.2"/>
<path d="M14.7133 4.52755C23.2758 4.52755 25.0819 11.0227 24.9147 14.2703C22.3727 8.49188 14.3788 8.1671 10.6997 8.72701L10.6997 8.72698C13.2082 6.20733 13.7099 5.70339 14.7133 4.52755Z" fill="black" fill-opacity="0.2"/>
<path d="M14.7133 4.52755C23.2758 4.52755 25.0819 11.0227 24.9147 14.2703C22.3727 8.49188 14.3788 8.1671 10.6997 8.72701L10.6997 8.72698C13.2082 6.20733 13.7099 5.70339 14.7133 4.52755Z" fill="black" fill-opacity="0.2"/>
<path d="M32.273 1.16798C27.4567 2.37742 25.8066 6.37531 25.5836 8.22308C25.2491 7.55116 25.0819 6.87925 24.9147 6.03936C26.587 1.16797 30.7679 1.16798 32.273 1.16798Z" fill="#1D1D1D"/>
<path d="M32.273 1.16798C27.4567 2.37742 25.8066 6.37531 25.5836 8.22308C25.2491 7.55116 25.0819 6.87925 24.9147 6.03936C26.587 1.16797 30.7679 1.16798 32.273 1.16798Z" fill="black" fill-opacity="0.2"/>
<path d="M32.273 1.16798C27.4567 2.37742 25.8066 6.37531 25.5836 8.22308C25.2491 7.55116 25.0819 6.87925 24.9147 6.03936C26.587 1.16797 30.7679 1.16798 32.273 1.16798Z" fill="black" fill-opacity="0.2"/>
<path d="M32.273 1.16798C27.4567 2.37742 25.8066 6.37531 25.5836 8.22308C25.2491 7.55116 25.0819 6.87925 24.9147 6.03936C26.587 1.16797 30.7679 1.16798 32.273 1.16798Z" fill="black" fill-opacity="0.2"/>
<path d="M32.273 1.16798C27.4567 2.37742 25.8066 6.37531 25.5836 8.22308C25.2491 7.55116 25.0819 6.87925 24.9147 6.03936C26.587 1.16797 30.7679 1.16798 32.273 1.16798Z" fill="black" fill-opacity="0.2"/>
<path d="M32.273 1.16798C27.4567 2.37742 25.8066 6.37531 25.5836 8.22308C25.2491 7.55116 25.0819 6.87925 24.9147 6.03936C26.587 1.16797 30.7679 1.16798 32.273 1.16798Z" fill="black" fill-opacity="0.2"/>
<path d="M32.273 1.16798C27.4567 2.37742 25.8066 6.37531 25.5836 8.22308C25.2491 7.55116 25.0819 6.87925 24.9147 6.03936C26.587 1.16797 30.7679 1.16798 32.273 1.16798Z" fill="black" fill-opacity="0.2"/>
<path d="M32.273 1.16798C27.4567 2.37742 25.8066 6.37531 25.5836 8.22308C25.2491 7.55116 25.0819 6.87925 24.9147 6.03936C26.587 1.16797 30.7679 1.16798 32.273 1.16798Z" fill="black" fill-opacity="0.2"/>
<path d="M20.0648 1C22.7406 2.5118 23.5768 3.68766 24.0785 4.86351C24.5802 4.19158 24.5802 4.02361 24.7474 3.68766C24.0785 2.00787 21.9044 1.16799 20.0648 1Z" fill="#1D1D1D"/>
<path d="M20.0648 1C22.7406 2.5118 23.5768 3.68766 24.0785 4.86351C24.5802 4.19158 24.5802 4.02361 24.7474 3.68766C24.0785 2.00787 21.9044 1.16799 20.0648 1Z" fill="black" fill-opacity="0.2"/>
<path d="M20.0648 1C22.7406 2.5118 23.5768 3.68766 24.0785 4.86351C24.5802 4.19158 24.5802 4.02361 24.7474 3.68766C24.0785 2.00787 21.9044 1.16799 20.0648 1Z" fill="black" fill-opacity="0.2"/>
<path d="M20.0648 1C22.7406 2.5118 23.5768 3.68766 24.0785 4.86351C24.5802 4.19158 24.5802 4.02361 24.7474 3.68766C24.0785 2.00787 21.9044 1.16799 20.0648 1Z" fill="black" fill-opacity="0.2"/>
<path d="M20.0648 1C22.7406 2.5118 23.5768 3.68766 24.0785 4.86351C24.5802 4.19158 24.5802 4.02361 24.7474 3.68766C24.0785 2.00787 21.9044 1.16799 20.0648 1Z" fill="black" fill-opacity="0.2"/>
<path d="M20.0648 1C22.7406 2.5118 23.5768 3.68766 24.0785 4.86351C24.5802 4.19158 24.5802 4.02361 24.7474 3.68766C24.0785 2.00787 21.9044 1.16799 20.0648 1Z" fill="black" fill-opacity="0.2"/>
<path d="M20.0648 1C22.7406 2.5118 23.5768 3.68766 24.0785 4.86351C24.5802 4.19158 24.5802 4.02361 24.7474 3.68766C24.0785 2.00787 21.9044 1.16799 20.0648 1Z" fill="black" fill-opacity="0.2"/>
<path d="M20.0648 1C22.7406 2.5118 23.5768 3.68766 24.0785 4.86351C24.5802 4.19158 24.5802 4.02361 24.7474 3.68766C24.0785 2.00787 21.9044 1.16799 20.0648 1Z" fill="black" fill-opacity="0.2"/>
<path d="M1 15.6142C7.85666 17.9659 18.5597 14.2704 22.9078 15.6142C23.2423 17.4619 27.4232 17.4619 28.0921 15.6142C35.4505 15.2782 43.3106 17.7979 50 15.2782M3.3413 15.2782C12.372 15.6141 15.5829 11.5982 22.9078 14.6063M28.0921 14.6063C38.4608 11.4147 39.7986 16.3002 47.6587 15.2782M22.9078 14.1023C15.7167 9.73488 8.69283 15.6142 4.84642 14.1023C14.7133 7.21524 21.7372 11.2467 24.413 14.6063M26.587 14.6063C30.2662 10.5748 37.1229 7.71914 46.3208 14.4383C41.6382 14.9106 35.6177 10.0709 27.7577 14.2703M25.9181 14.2703C25.7509 11.1907 27.557 4.9307 36.1195 4.52755L40.3003 8.72701C36.6212 8.22309 28.5939 8.62626 25.9181 14.2703ZM24.9147 14.2703C25.0819 11.0227 23.2758 4.52755 14.7133 4.52755C13.7099 5.7034 13.2082 6.20733 10.6997 8.72701C14.3788 8.1671 22.3727 8.49188 24.9147 14.2703ZM25.5836 8.22308C25.8066 6.37531 27.4567 2.37742 32.273 1.16798C30.7679 1.16798 26.587 1.16797 24.9147 6.03936C25.0819 6.87925 25.2491 7.55116 25.5836 8.22308ZM24.0785 4.86351C23.5768 3.68766 22.7406 2.5118 20.0648 1C21.9044 1.16799 24.0785 2.00787 24.7474 3.68766C24.5802 4.02361 24.5802 4.19158 24.0785 4.86351Z" stroke="#1D1D1D" stroke-width="0.2" stroke-linecap="round" stroke-linejoin="round"/>
<path d="M1 15.6142C7.85666 17.9659 18.5597 14.2704 22.9078 15.6142C23.2423 17.4619 27.4232 17.4619 28.0921 15.6142C35.4505 15.2782 43.3106 17.7979 50 15.2782M3.3413 15.2782C12.372 15.6141 15.5829 11.5982 22.9078 14.6063M28.0921 14.6063C38.4608 11.4147 39.7986 16.3002 47.6587 15.2782M22.9078 14.1023C15.7167 9.73488 8.69283 15.6142 4.84642 14.1023C14.7133 7.21524 21.7372 11.2467 24.413 14.6063M26.587 14.6063C30.2662 10.5748 37.1229 7.71914 46.3208 14.4383C41.6382 14.9106 35.6177 10.0709 27.7577 14.2703M25.9181 14.2703C25.7509 11.1907 27.557 4.9307 36.1195 4.52755L40.3003 8.72701C36.6212 8.22309 28.5939 8.62626 25.9181 14.2703ZM24.9147 14.2703C25.0819 11.0227 23.2758 4.52755 14.7133 4.52755C13.7099 5.7034 13.2082 6.20733 10.6997 8.72701C14.3788 8.1671 22.3727 8.49188 24.9147 14.2703ZM25.5836 8.22308C25.8066 6.37531 27.4567 2.37742 32.273 1.16798C30.7679 1.16798 26.587 1.16797 24.9147 6.03936C25.0819 6.87925 25.2491 7.55116 25.5836 8.22308ZM24.0785 4.86351C23.5768 3.68766 22.7406 2.5118 20.0648 1C21.9044 1.16799 24.0785 2.00787 24.7474 3.68766C24.5802 4.02361 24.5802 4.19158 24.0785 4.86351Z" stroke="black" stroke-opacity="0.2" stroke-width="0.2" stroke-linecap="round" stroke-linejoin="round"/>
<path d="M1 15.6142C7.85666 17.9659 18.5597 14.2704 22.9078 15.6142C23.2423 17.4619 27.4232 17.4619 28.0921 15.6142C35.4505 15.2782 43.3106 17.7979 50 15.2782M3.3413 15.2782C12.372 15.6141 15.5829 11.5982 22.9078 14.6063M28.0921 14.6063C38.4608 11.4147 39.7986 16.3002 47.6587 15.2782M22.9078 14.1023C15.7167 9.73488 8.69283 15.6142 4.84642 14.1023C14.7133 7.21524 21.7372 11.2467 24.413 14.6063M26.587 14.6063C30.2662 10.5748 37.1229 7.71914 46.3208 14.4383C41.6382 14.9106 35.6177 10.0709 27.7577 14.2703M25.9181 14.2703C25.7509 11.1907 27.557 4.9307 36.1195 4.52755L40.3003 8.72701C36.6212 8.22309 28.5939 8.62626 25.9181 14.2703ZM24.9147 14.2703C25.0819 11.0227 23.2758 4.52755 14.7133 4.52755C13.7099 5.7034 13.2082 6.20733 10.6997 8.72701C14.3788 8.1671 22.3727 8.49188 24.9147 14.2703ZM25.5836 8.22308C25.8066 6.37531 27.4567 2.37742 32.273 1.16798C30.7679 1.16798 26.587 1.16797 24.9147 6.03936C25.0819 6.87925 25.2491 7.55116 25.5836 8.22308ZM24.0785 4.86351C23.5768 3.68766 22.7406 2.5118 20.0648 1C21.9044 1.16799 24.0785 2.00787 24.7474 3.68766C24.5802 4.02361 24.5802 4.19158 24.0785 4.86351Z" stroke="black" stroke-opacity="0.2" stroke-width="0.2" stroke-linecap="round" stroke-linejoin="round"/>
<path d="M1 15.6142C7.85666 17.9659 18.5597 14.2704 22.9078 15.6142C23.2423 17.4619 27.4232 17.4619 28.0921 15.6142C35.4505 15.2782 43.3106 17.7979 50 15.2782M3.3413 15.2782C12.372 15.6141 15.5829 11.5982 22.9078 14.6063M28.0921 14.6063C38.4608 11.4147 39.7986 16.3002 47.6587 15.2782M22.9078 14.1023C15.7167 9.73488 8.69283 15.6142 4.84642 14.1023C14.7133 7.21524 21.7372 11.2467 24.413 14.6063M26.587 14.6063C30.2662 10.5748 37.1229 7.71914 46.3208 14.4383C41.6382 14.9106 35.6177 10.0709 27.7577 14.2703M25.9181 14.2703C25.7509 11.1907 27.557 4.9307 36.1195 4.52755L40.3003 8.72701C36.6212 8.22309 28.5939 8.62626 25.9181 14.2703ZM24.9147 14.2703C25.0819 11.0227 23.2758 4.52755 14.7133 4.52755C13.7099 5.7034 13.2082 6.20733 10.6997 8.72701C14.3788 8.1671 22.3727 8.49188 24.9147 14.2703ZM25.5836 8.22308C25.8066 6.37531 27.4567 2.37742 32.273 1.16798C30.7679 1.16798 26.587 1.16797 24.9147 6.03936C25.0819 6.87925 25.2491 7.55116 25.5836 8.22308ZM24.0785 4.86351C23.5768 3.68766 22.7406 2.5118 20.0648 1C21.9044 1.16799 24.0785 2.00787 24.7474 3.68766C24.5802 4.02361 24.5802 4.19158 24.0785 4.86351Z" stroke="black" stroke-opacity="0.2" stroke-width="0.2" stroke-linecap="round" stroke-linejoin="round"/>
<path d="M1 15.6142C7.85666 17.9659 18.5597 14.2704 22.9078 15.6142C23.2423 17.4619 27.4232 17.4619 28.0921 15.6142C35.4505 15.2782 43.3106 17.7979 50 15.2782M3.3413 15.2782C12.372 15.6141 15.5829 11.5982 22.9078 14.6063M28.0921 14.6063C38.4608 11.4147 39.7986 16.3002 47.6587 15.2782M22.9078 14.1023C15.7167 9.73488 8.69283 15.6142 4.84642 14.1023C14.7133 7.21524 21.7372 11.2467 24.413 14.6063M26.587 14.6063C30.2662 10.5748 37.1229 7.71914 46.3208 14.4383C41.6382 14.9106 35.6177 10.0709 27.7577 14.2703M25.9181 14.2703C25.7509 11.1907 27.557 4.9307 36.1195 4.52755L40.3003 8.72701C36.6212 8.22309 28.5939 8.62626 25.9181 14.2703ZM24.9147 14.2703C25.0819 11.0227 23.2758 4.52755 14.7133 4.52755C13.7099 5.7034 13.2082 6.20733 10.6997 8.72701C14.3788 8.1671 22.3727 8.49188 24.9147 14.2703ZM25.5836 8.22308C25.8066 6.37531 27.4567 2.37742 32.273 1.16798C30.7679 1.16798 26.587 1.16797 24.9147 6.03936C25.0819 6.87925 25.2491 7.55116 25.5836 8.22308ZM24.0785 4.86351C23.5768 3.68766 22.7406 2.5118 20.0648 1C21.9044 1.16799 24.0785 2.00787 24.7474 3.68766C24.5802 4.02361 24.5802 4.19158 24.0785 4.86351Z" stroke="black" stroke-opacity="0.2" stroke-width="0.2" stroke-linecap="round" stroke-linejoin="round"/>
<path d="M1 15.6142C7.85666 17.9659 18.5597 14.2704 22.9078 15.6142C23.2423 17.4619 27.4232 17.4619 28.0921 15.6142C35.4505 15.2782 43.3106 17.7979 50 15.2782M3.3413 15.2782C12.372 15.6141 15.5829 11.5982 22.9078 14.6063M28.0921 14.6063C38.4608 11.4147 39.7986 16.3002 47.6587 15.2782M22.9078 14.1023C15.7167 9.73488 8.69283 15.6142 4.84642 14.1023C14.7133 7.21524 21.7372 11.2467 24.413 14.6063M26.587 14.6063C30.2662 10.5748 37.1229 7.71914 46.3208 14.4383C41.6382 14.9106 35.6177 10.0709 27.7577 14.2703M25.9181 14.2703C25.7509 11.1907 27.557 4.9307 36.1195 4.52755L40.3003 8.72701C36.6212 8.22309 28.5939 8.62626 25.9181 14.2703ZM24.9147 14.2703C25.0819 11.0227 23.2758 4.52755 14.7133 4.52755C13.7099 5.7034 13.2082 6.20733 10.6997 8.72701C14.3788 8.1671 22.3727 8.49188 24.9147 14.2703ZM25.5836 8.22308C25.8066 6.37531 27.4567 2.37742 32.273 1.16798C30.7679 1.16798 26.587 1.16797 24.9147 6.03936C25.0819 6.87925 25.2491 7.55116 25.5836 8.22308ZM24.0785 4.86351C23.5768 3.68766 22.7406 2.5118 20.0648 1C21.9044 1.16799 24.0785 2.00787 24.7474 3.68766C24.5802 4.02361 24.5802 4.19158 24.0785 4.86351Z" stroke="black" stroke-opacity="0.2" stroke-width="0.2" stroke-linecap="round" stroke-linejoin="round"/>
<path d="M1 15.6142C7.85666 17.9659 18.5597 14.2704 22.9078 15.6142C23.2423 17.4619 27.4232 17.4619 28.0921 15.6142C35.4505 15.2782 43.3106 17.7979 50 15.2782M3.3413 15.2782C12.372 15.6141 15.5829 11.5982 22.9078 14.6063M28.0921 14.6063C38.4608 11.4147 39.7986 16.3002 47.6587 15.2782M22.9078 14.1023C15.7167 9.73488 8.69283 15.6142 4.84642 14.1023C14.7133 7.21524 21.7372 11.2467 24.413 14.6063M26.587 14.6063C30.2662 10.5748 37.1229 7.71914 46.3208 14.4383C41.6382 14.9106 35.6177 10.0709 27.7577 14.2703M25.9181 14.2703C25.7509 11.1907 27.557 4.9307 36.1195 4.52755L40.3003 8.72701C36.6212 8.22309 28.5939 8.62626 25.9181 14.2703ZM24.9147 14.2703C25.0819 11.0227 23.2758 4.52755 14.7133 4.52755C13.7099 5.7034 13.2082 6.20733 10.6997 8.72701C14.3788 8.1671 22.3727 8.49188 24.9147 14.2703ZM25.5836 8.22308C25.8066 6.37531 27.4567 2.37742 32.273 1.16798C30.7679 1.16798 26.587 1.16797 24.9147 6.03936C25.0819 6.87925 25.2491 7.55116 25.5836 8.22308ZM24.0785 4.86351C23.5768 3.68766 22.7406 2.5118 20.0648 1C21.9044 1.16799 24.0785 2.00787 24.7474 3.68766C24.5802 4.02361 24.5802 4.19158 24.0785 4.86351Z" stroke="black" stroke-opacity="0.2" stroke-width="0.2" stroke-linecap="round" stroke-linejoin="round"/>
<path d="M1 15.6142C7.85666 17.9659 18.5597 14.2704 22.9078 15.6142C23.2423 17.4619 27.4232 17.4619 28.0921 15.6142C35.4505 15.2782 43.3106 17.7979 50 15.2782M3.3413 15.2782C12.372 15.6141 15.5829 11.5982 22.9078 14.6063M28.0921 14.6063C38.4608 11.4147 39.7986 16.3002 47.6587 15.2782M22.9078 14.1023C15.7167 9.73488 8.69283 15.6142 4.84642 14.1023C14.7133 7.21524 21.7372 11.2467 24.413 14.6063M26.587 14.6063C30.2662 10.5748 37.1229 7.71914 46.3208 14.4383C41.6382 14.9106 35.6177 10.0709 27.7577 14.2703M25.9181 14.2703C25.7509 11.1907 27.557 4.9307 36.1195 4.52755L40.3003 8.72701C36.6212 8.22309 28.5939 8.62626 25.9181 14.2703ZM24.9147 14.2703C25.0819 11.0227 23.2758 4.52755 14.7133 4.52755C13.7099 5.7034 13.2082 6.20733 10.6997 8.72701C14.3788 8.1671 22.3727 8.49188 24.9147 14.2703ZM25.5836 8.22308C25.8066 6.37531 27.4567 2.37742 32.273 1.16798C30.7679 1.16798 26.587 1.16797 24.9147 6.03936C25.0819 6.87925 25.2491 7.55116 25.5836 8.22308ZM24.0785 4.86351C23.5768 3.68766 22.7406 2.5118 20.0648 1C21.9044 1.16799 24.0785 2.00787 24.7474 3.68766C24.5802 4.02361 24.5802 4.19158 24.0785 4.86351Z" stroke="black" stroke-opacity="0.2" stroke-width="0.2" stroke-linecap="round" stroke-linejoin="round"/>
</svg>
