<?xml version="1.0" encoding="UTF-8"?>
<svg width="200" height="200" viewBox="0 0 200 200" xmlns="http://www.w3.org/2000/svg">
  <style>
    .gear {
      fill: #808080;
      animation: rotate 4s linear infinite;
    }
    .hammer {
      fill: #A9A9A9;
      animation: hammer-move 1s ease-in-out infinite;
    }
    @keyframes rotate {
      from {
        transform: rotate(0deg);
        transform-origin: 100px 100px;
      }
      to {
        transform: rotate(360deg);
        transform-origin: 100px 100px;
      }
    }
    @keyframes hammer-move {
      0%, 100% {
        transform: translateY(0);
      }
      50% {
        transform: translateY(-10px);
      }
    }
  </style>
  <!-- Gear -->
  <g class="gear">
    <circle cx="100" cy="100" r="40"/>
    <path d="M100,60 L110,40 L90,40 Z" />
    <path d="M100,140 L110,160 L90,160 Z" />
    <path d="M60,100 L40,110 L40,90 Z" />
    <path d="M140,100 L160,110 L160,90 Z" />
    <path d="M130,70 L150,60 L140,50 Z" />
    <path d="M70,130 L50,140 L60,150 Z" />
    <path d="M70,70 L50,60 L60,50 Z" />
    <path d="M130,130 L150,140 L140,150 Z" />
  </g>
  <!-- Hammer -->
  <g class="hammer">
    <rect x="95" y="30" width="10" height="50" />
    <rect x="85" y="20" width="30" height="20" />
  </g>
</svg>